#Comment line ignore any data following # character 
#Hierarchical Translation and Rotation (.htr) file 
[Header]	
#Header keywords are followed by a single value 
FileType HTR		#Single word string
DataType HTRS		#Translation followed by rotation and scale data
FileVersion 1		#integer
NumSegments 64		#integer
NumFrames 3		#integer
DataFrameRate 30		#integer, data frame rate in this file
EulerRotationOrder ZYX
CalibrationUnits mm
RotationUnits Degrees
GlobalAxisofGravity Y
BoneLengthAxis Y
ScaleFactor 1.00
[SegmentNames&Hierarchy]
#CHILD	PARENT
Pinger_Root GLOBAL
Pelvis Pinger_Root
L_Hip Pelvis
R_Hip Pelvis
Rear_Leg01 Pelvis
Spine1 Pelvis
L_Leg01 L_Hip
L_Leg02 L_Leg01
L_Leg03 L_Leg02
L_Foot L_Leg03
L_Toe1_01 L_Foot
L_Toe2_01 L_Foot
L_Toe3_01 L_Foot
planeAlignerLeft L_Foot
L_Toe1_02 L_Toe1_01
L_Toe1_03 L_Toe1_02
L_Toe2_02 L_Toe2_01
L_Toe2_03 L_Toe2_02
L_Toe3_02 L_Toe3_01
L_Toe3_03 L_Toe3_02
planeLockWeightLeft planeAlignerLeft
R_Leg01 R_Hip
R_Leg02 R_Leg01
R_Leg03 R_Leg02
R_Foot R_Leg03
planeAlignerRight R_Foot
R_Toe1_01 R_Foot
R_Toe2_01 R_Foot
R_Toe3_01 R_Foot
planeLockWeightRight planeAlignerRight
R_Toe1_02 R_Toe1_01
R_Toe1_03 R_Toe1_02
R_Toe2_02 R_Toe2_01
R_Toe2_03 R_Toe2_02
R_Toe3_02 R_Toe3_01
R_Toe3_03 R_Toe3_02
Rear_Leg02 Rear_Leg01
Rear_Leg03 Rear_Leg02
Rear_Leg04 Rear_Leg03
Rear_Foot Rear_Leg04
planeAlignerCenter Rear_Foot
Rear_Toe1_01 Rear_Foot
Rear_Toe2_01 Rear_Foot
Rear_Toe3_01 Rear_Foot
planeLockWeightCenter planeAlignerCenter
Rear_Toe1_02 Rear_Toe1_01
Rear_Toe1_03 Rear_Toe1_02
Rear_Toe2_02 Rear_Toe2_01
Rear_Toe2_03 Rear_Toe2_02
Rear_Toe3_02 Rear_Toe3_01
Rear_Toe3_03 Rear_Toe3_02
Back_Bone Spine1
Head Spine1
Motor_Bone Back_Bone
Ping_Mechanism Back_Bone
BN_LookIK Head
bottomMouth Head
L_Mouth01 Head
L_mouthFront Head
mouthGun Head
R_Mouth01 Head
R_mouthFront Head
TopMouth Head
weapon_bone Head
[BasePosition]
#SegmentName Tx, Ty, Tz, Rx, Ry, Rz, BoneLength
Pinger_Root 0.000000 0.000000 0.000000 -90.000000 0.000000 0.000000 10.000000 
Pelvis 0.000000 0.000000 0.000000 0.000000 0.000000 0.000000 10.000000 
L_Hip 0.000000 0.000000 0.000000 0.000000 0.000000 0.000000 10.000000 
R_Hip 0.000000 0.000000 0.000000 0.000000 0.000000 0.000000 10.000000 
Rear_Leg01 0.000000 0.000000 0.000000 0.000000 0.000000 0.000000 10.000000 
Spine1 0.000000 0.000000 0.000000 0.000000 0.000000 0.000000 10.000000 
L_Leg01 0.000000 0.000000 0.000000 0.000000 0.000000 0.000000 10.000000 
L_Leg02 0.000000 0.000000 0.000000 0.000000 0.000000 0.000000 10.000000 
L_Leg03 0.000000 0.000000 0.000000 0.000000 0.000000 0.000000 10.000000 
L_Foot 0.000000 0.000000 0.000000 0.000000 0.000000 0.000000 10.000000 
L_Toe1_01 0.000000 0.000000 0.000000 0.000000 0.000000 0.000000 10.000000 
L_Toe2_01 0.000000 0.000000 0.000000 0.000000 0.000000 0.000000 10.000000 
L_Toe3_01 0.000000 0.000000 0.000000 0.000000 0.000000 0.000000 10.000000 
planeAlignerLeft 0.000000 0.000000 0.000000 0.000000 0.000000 0.000000 10.000000 
L_Toe1_02 0.000000 0.000000 0.000000 0.000000 0.000000 0.000000 10.000000 
L_Toe1_03 0.000000 0.000000 0.000000 0.000000 0.000000 0.000000 10.000000 
L_Toe2_02 0.000000 0.000000 0.000000 0.000000 0.000000 0.000000 10.000000 
L_Toe2_03 0.000000 0.000000 0.000000 0.000000 0.000000 0.000000 10.000000 
L_Toe3_02 0.000000 0.000000 0.000000 0.000000 0.000000 0.000000 10.000000 
L_Toe3_03 0.000000 0.000000 0.000000 0.000000 0.000000 0.000000 10.000000 
planeLockWeightLeft 0.000000 0.000000 0.000000 0.000000 0.000000 0.000000 10.000000 
R_Leg01 0.000000 0.000000 0.000000 0.000000 0.000000 0.000000 10.000000 
R_Leg02 0.000000 0.000000 0.000000 0.000000 0.000000 0.000000 10.000000 
R_Leg03 0.000000 0.000000 0.000000 0.000000 0.000000 0.000000 10.000000 
R_Foot 0.000000 0.000000 0.000000 0.000000 0.000000 0.000000 10.000000 
planeAlignerRight 0.000000 0.000000 0.000000 0.000000 0.000000 0.000000 10.000000 
R_Toe1_01 0.000000 0.000000 0.000000 0.000000 0.000000 0.000000 10.000000 
R_Toe2_01 0.000000 0.000000 0.000000 0.000000 0.000000 0.000000 10.000000 
R_Toe3_01 0.000000 0.000000 0.000000 0.000000 0.000000 0.000000 10.000000 
planeLockWeightRight 0.000000 0.000000 0.000000 0.000000 0.000000 0.000000 10.000000 
R_Toe1_02 0.000000 0.000000 0.000000 0.000000 0.000000 0.000000 10.000000 
R_Toe1_03 0.000000 0.000000 0.000000 0.000000 0.000000 0.000000 10.000000 
R_Toe2_02 0.000000 0.000000 0.000000 0.000000 0.000000 0.000000 10.000000 
R_Toe2_03 0.000000 0.000000 0.000000 0.000000 0.000000 0.000000 10.000000 
R_Toe3_02 0.000000 0.000000 0.000000 0.000000 0.000000 0.000000 10.000000 
R_Toe3_03 0.000000 0.000000 0.000000 0.000000 0.000000 0.000000 10.000000 
Rear_Leg02 0.000000 0.000000 0.000000 0.000000 0.000000 0.000000 10.000000 
Rear_Leg03 0.000000 0.000000 0.000000 0.000000 0.000000 0.000000 10.000000 
Rear_Leg04 0.000000 0.000000 0.000000 0.000000 0.000000 0.000000 10.000000 
Rear_Foot 0.000000 0.000000 0.000000 0.000000 0.000000 0.000000 10.000000 
planeAlignerCenter 0.000000 0.000000 0.000000 0.000000 0.000000 0.000000 10.000000 
Rear_Toe1_01 0.000000 0.000000 0.000000 0.000000 0.000000 0.000000 10.000000 
Rear_Toe2_01 0.000000 0.000000 0.000000 0.000000 0.000000 0.000000 10.000000 
Rear_Toe3_01 0.000000 0.000000 0.000000 0.000000 0.000000 0.000000 10.000000 
planeLockWeightCenter 0.000000 0.000000 0.000000 0.000000 0.000000 0.000000 10.000000 
Rear_Toe1_02 0.000000 0.000000 0.000000 0.000000 0.000000 0.000000 10.000000 
Rear_Toe1_03 0.000000 0.000000 0.000000 0.000000 0.000000 0.000000 10.000000 
Rear_Toe2_02 0.000000 0.000000 0.000000 0.000000 0.000000 0.000000 10.000000 
Rear_Toe2_03 0.000000 0.000000 0.000000 0.000000 0.000000 0.000000 10.000000 
Rear_Toe3_02 0.000000 0.000000 0.000000 0.000000 0.000000 0.000000 10.000000 
Rear_Toe3_03 0.000000 0.000000 0.000000 0.000000 0.000000 0.000000 10.000000 
Back_Bone 0.000000 0.000000 0.000000 0.000000 0.000000 0.000000 10.000000 
Head 0.000000 0.000000 0.000000 0.000000 0.000000 0.000000 10.000000 
Motor_Bone 0.000000 0.000000 0.000000 0.000000 0.000000 0.000000 10.000000 
Ping_Mechanism 0.000000 0.000000 0.000000 0.000000 0.000000 0.000000 10.000000 
BN_LookIK 0.000000 0.000000 0.000000 0.000000 0.000000 0.000000 10.000000 
bottomMouth 0.000000 0.000000 0.000000 0.000000 0.000000 0.000000 10.000000 
L_Mouth01 0.000000 0.000000 0.000000 0.000000 0.000000 0.000000 10.000000 
L_mouthFront 0.000000 0.000000 0.000000 0.000000 0.000000 0.000000 10.000000 
mouthGun 0.000000 0.000000 0.000000 0.000000 0.000000 0.000000 10.000000 
R_Mouth01 0.000000 0.000000 0.000000 0.000000 0.000000 0.000000 10.000000 
R_mouthFront 0.000000 0.000000 0.000000 0.000000 0.000000 0.000000 10.000000 
TopMouth 0.000000 0.000000 0.000000 0.000000 0.000000 0.000000 10.000000 
weapon_bone 0.000000 0.000000 0.000000 0.000000 0.000000 0.000000 10.000000 
#Beginning of Data. Separated by tabs
#Fr	Tx	Ty	Tz	Rx	Ry	Rz	SF
[Pinger_Root]
9 0.000000 0.000000 0.000000 -0.000075 -0.000000 -0.000020 0.000000
10 0.000000 0.000000 0.000000 -0.000075 -0.000000 -0.000020 0.000000
11 0.000000 0.000000 0.000000 -0.000075 -0.000000 -0.000020 0.000000
[Pelvis]
9 -694.916443 1965.495850 5575.488770 103.515511 -70.306282 -110.752869 5952.491699
10 -826.353516 1962.144775 5581.626953 106.681061 -69.640839 -113.310051 5973.895996
11 -951.821960 1955.195801 5556.765625 110.148781 -69.171684 -116.109650 5967.109863
[L_Hip]
9 5.766392 125.831482 872.656799 160.158691 -45.484905 122.312202 881.701050
10 5.766392 125.831482 872.656799 160.158691 -45.484905 122.312202 881.701050
11 5.766392 125.831482 872.656799 160.158691 -45.484905 122.312202 881.701050
[R_Hip]
9 5.765438 125.836372 -872.654907 38.087841 49.812687 125.703735 881.699829
10 5.765438 125.836372 -872.654907 38.087841 49.812687 125.703735 881.699829
11 5.765438 125.836372 -872.654907 38.087830 49.812672 125.703735 881.699829
[Rear_Leg01]
9 -192.298416 -925.602966 -0.001907 169.701691 6.728846 -134.696884 945.367432
10 -192.298416 -925.602966 -0.001907 169.832184 6.617390 -134.648987 945.367432
11 -192.298416 -925.602966 -0.001907 169.962555 6.505825 -134.601364 945.367432
[Spine1]
9 290.604584 5.007505 0.000477 40.996559 0.239131 -49.018654 290.647736
10 290.604584 5.007505 0.000477 40.570076 0.821428 -49.487675 290.647736
11 290.604584 5.007505 0.000477 39.815018 1.100603 -49.782024 290.647736
[L_Leg01]
9 761.932007 -0.002384 -0.069261 43.158520 16.796564 -73.739746 761.932068
10 761.932007 -0.002384 -0.069261 43.469105 16.558325 -73.987221 761.932068
11 761.932007 -0.002384 -0.069261 43.924145 16.442560 -73.885719 761.932068
[L_Leg02]
9 1441.140503 -0.000954 -0.000715 -1.552735 0.501022 -63.498188 1441.140503
10 1441.140503 -0.000954 -0.000715 -1.564957 0.483651 -64.390121 1441.140503
11 1441.140503 -0.000954 -0.000715 -1.586334 0.443697 -66.216705 1441.140503
[L_Leg03]
9 1686.963989 -0.000715 -0.000954 0.047085 -0.013374 96.950905 1686.963989
10 1686.963989 -0.000715 -0.000954 0.043709 -0.010104 98.082207 1686.963989
11 1686.963989 -0.000715 -0.000954 0.036533 -0.010343 100.374275 1686.963989
[L_Foot]
9 3041.570068 -30.715107 11.297464 -7.269973 26.243557 53.198700 3041.746094
10 3041.570068 -30.715107 11.297464 -5.509449 26.265787 53.540722 3041.746094
11 3041.570068 -30.715107 11.297464 -4.052577 26.284328 53.646976 3041.746094
[L_Toe1_01]
9 -188.216690 -224.732346 -21.137953 89.330788 -2.396121 -161.427643 293.899567
10 -188.216690 -224.732346 -21.137953 89.330788 -2.396121 -161.427643 293.899567
11 -188.216690 -224.732346 -21.137953 89.330788 -2.396121 -161.427643 293.899567
[L_Toe2_01]
9 200.746536 -219.926590 148.838394 -78.791496 -10.652695 -43.374847 332.896027
10 200.746536 -219.926590 148.838394 -78.791496 -10.652695 -43.374847 332.896027
11 200.746536 -219.926590 148.838394 -78.791496 -10.652695 -43.374847 332.896027
[L_Toe3_01]
9 188.832520 -219.859131 -191.078659 -109.186691 26.104874 -48.222931 347.140900
10 188.832520 -219.859131 -191.078659 -109.186691 26.104874 -48.222931 347.140900
11 188.832520 -219.859131 -191.078659 -109.186691 26.104877 -48.222935 347.140900
[planeAlignerLeft]
9 0.812531 -811.448792 -0.314951 0.000000 -90.000000 -90.001900 811.449280
10 0.812531 -811.448792 -0.314951 0.000000 -90.000000 -90.001900 811.449280
11 0.812531 -811.448792 -0.314951 0.000000 -90.000000 -90.001900 811.449280
[L_Toe1_02]
9 413.761139 0.000477 0.000000 0.000203 -25.410625 -0.000182 413.761139
10 413.761139 0.000477 0.000000 0.000203 -25.410625 -0.000182 413.761139
11 413.761139 0.000477 0.000000 0.000203 -25.410625 -0.000182 413.761139
[L_Toe1_03]
9 464.317322 0.000358 -0.000089 0.004933 62.473137 0.004933 464.317322
10 464.317322 0.000358 -0.000089 0.004933 62.473137 0.004933 464.317322
11 464.317322 0.000358 -0.000089 0.004933 62.473137 0.004933 464.317322
[L_Toe2_02]
9 342.235809 -0.000477 0.000238 -0.000101 -70.104240 0.000129 342.235809
10 342.235809 -0.000477 0.000238 -0.000101 -70.104240 0.000129 342.235809
11 342.235809 -0.000477 0.000238 -0.000101 -70.104240 0.000129 342.235809
[L_Toe2_03]
9 420.210846 -0.000715 0.000000 0.016997 82.081528 0.016997 420.210846
10 420.210846 -0.000715 0.000000 0.016997 82.081528 0.016997 420.210846
11 420.210846 -0.000715 0.000000 0.016997 82.081528 0.016997 420.210846
[L_Toe3_02]
9 329.270111 0.000954 0.000000 0.001178 -80.668365 0.001178 329.270111
10 329.270111 0.000954 0.000000 0.001178 -80.668365 0.001178 329.270111
11 329.270111 0.000954 0.000000 0.001178 -80.668320 0.001178 329.270111
[L_Toe3_03]
9 439.137451 -0.001907 0.000954 -179.996323 77.872643 -179.992813 439.137451
10 439.137451 -0.001907 0.000954 -179.996323 77.872643 -179.992813 439.137451
11 439.137451 -0.001907 0.000954 -179.996323 77.872643 -179.992813 439.137451
[planeLockWeightLeft]
9 -0.000954 0.000238 -0.000305 -0.011826 -0.004376 0.005620 0.001029
10 -0.000954 0.000238 -0.000305 -0.011826 -0.004376 0.005620 0.001029
11 -0.000954 0.000238 -0.000305 -0.011826 -0.004376 0.005620 0.001029
[R_Leg01]
9 761.455627 -0.001907 -0.000358 117.789001 59.884197 76.716850 761.455688
10 761.455627 -0.001907 -0.000358 119.745201 59.547161 79.504677 761.455688
11 761.455627 -0.001907 -0.000358 122.143738 58.623241 82.960587 761.455688
[R_Leg02]
9 1441.140625 0.000000 -0.000238 1.074767 -0.616791 -8.608304 1441.140625
10 1441.140625 0.000000 -0.000238 1.069515 -0.617718 -8.548765 1441.140625
11 1441.140625 0.000000 -0.000238 1.091977 -0.591488 -10.156499 1441.140625
[R_Leg03]
9 1686.963989 0.000954 0.001431 -0.160922 -0.003884 67.219398 1686.963989
10 1686.963989 0.000954 0.001431 -0.160919 -0.004009 67.130333 1686.963989
11 1686.963989 0.000954 0.001431 -0.150024 -0.002132 69.593445 1686.963989
[R_Foot]
9 3041.560059 -30.531288 -11.204481 24.932652 -24.602716 52.323257 3041.734131
10 3041.560059 -30.531288 -11.204481 24.748682 -24.610132 52.508743 3041.734131
11 3041.560059 -30.531288 -11.204481 23.973906 -24.620937 52.065071 3041.734131
[planeAlignerRight]
9 -0.635147 -812.270569 -0.364304 0.000000 -89.960434 -90.005180 812.270874
10 -0.635147 -812.270569 -0.364304 0.000000 -89.960434 -90.005180 812.270874
11 -0.635147 -812.270569 -0.364304 0.000000 -89.960434 -90.005180 812.270874
[R_Toe1_01]
9 -188.383347 -224.864899 21.052242 90.478722 3.231926 -161.378860 294.101532
10 -188.383347 -224.864899 21.052242 90.478722 3.231926 -161.378860 294.101532
11 -188.383347 -224.864899 21.052242 90.478722 3.231926 -161.378860 294.101532
[R_Toe2_01]
9 200.637817 -220.002121 -148.787384 -105.368958 18.813929 -49.808262 332.857574
10 200.637817 -220.002121 -148.787384 -105.368958 18.813929 -49.808262 332.857574
11 200.637817 -220.002121 -148.787384 -105.368950 18.813925 -49.808262 332.857574
[R_Toe3_01]
9 188.606735 -220.092957 191.126343 -76.041084 -6.322367 -46.892487 347.192566
10 188.606735 -220.092957 191.126343 -76.041084 -6.322367 -46.892487 347.192566
11 188.606735 -220.092957 191.126343 -76.041084 -6.322367 -46.892487 347.192566
[planeLockWeightRight]
9 -0.000477 0.000000 0.000000 -0.011823 -0.004379 -0.000027 0.000477
10 -0.000477 0.000000 0.000000 -0.011823 -0.004379 -0.000027 0.000477
11 -0.000477 0.000000 0.000000 -0.011823 -0.004379 -0.000027 0.000477
[R_Toe1_02]
9 413.762085 0.000477 -0.000119 0.001401 -23.743965 0.001401 413.762085
10 413.762085 0.000477 -0.000119 0.001401 -23.743965 0.001401 413.762085
11 413.762085 0.000477 -0.000119 0.001401 -23.743965 0.001401 413.762085
[R_Toe1_03]
9 464.317810 0.000000 0.001088 0.008919 74.877419 0.008919 464.317810
10 464.317810 0.000000 0.001088 0.008919 74.877419 0.008919 464.317810
11 464.317810 0.000000 0.001088 0.008919 74.877419 0.008919 464.317810
[R_Toe2_02]
9 342.234741 -0.000954 0.000238 0.001188 -72.309708 0.001188 342.234741
10 342.234741 -0.000954 0.000238 0.001188 -72.309654 0.001188 342.234741
11 342.234741 -0.000954 0.000238 0.001188 -72.309631 0.001188 342.234741
[R_Toe2_03]
9 420.210846 0.000715 -0.000268 0.028226 85.233879 0.028226 420.210846
10 420.210846 0.000715 -0.000268 0.028225 85.233879 0.028225 420.210846
11 420.210846 0.000715 -0.000268 0.028225 85.233757 0.028225 420.210846
[R_Toe3_02]
9 329.270355 -0.000477 -0.000954 0.001177 -80.843628 0.001177 329.270355
10 329.270355 -0.000477 -0.000954 0.001177 -80.843628 0.001177 329.270355
11 329.270355 -0.000477 -0.000954 0.001177 -80.843628 0.001177 329.270355
[R_Toe3_03]
9 439.137939 0.000238 0.001431 -179.996658 77.074120 -179.993134 439.137939
10 439.137939 0.000238 0.001431 -179.996658 77.074142 -179.993134 439.137939
11 439.137939 0.000238 0.001431 -179.996658 77.074219 -179.993134 439.137939
[Rear_Leg02]
9 1162.777710 -0.029802 0.005960 0.027779 -0.108794 -21.902405 1162.777710
10 1162.777710 -0.029802 0.005960 0.027324 -0.108909 -21.424036 1162.777710
11 1162.777710 -0.029802 0.005960 0.027645 -0.108828 -21.761370 1162.777710
[Rear_Leg03]
9 607.192505 -0.013351 -0.073195 -0.008189 0.006656 0.718786 607.192505
10 607.192505 -0.013351 -0.073195 -0.008227 0.006609 0.056062 607.192505
11 607.192505 -0.013351 -0.073195 -0.008204 0.006638 0.461612 607.192505
[Rear_Leg04]
9 995.874512 -0.020504 -0.011921 -0.018126 0.001599 -0.384107 995.874573
10 995.874512 -0.020504 -0.011921 -0.018123 0.001629 -0.191225 995.874573
11 995.874512 -0.020504 -0.011921 -0.018124 0.001626 -0.215950 995.874573
[Rear_Foot]
9 3096.176270 -0.067472 -0.041425 -0.372417 84.021217 -143.269272 3096.176270
10 3096.176270 -0.067472 -0.041425 -0.293249 82.724442 -143.204391 3096.176270
11 3096.176270 -0.067472 -0.041425 -0.235865 81.427780 -143.161209 3096.176270
[planeAlignerCenter]
9 0.350077 0.966311 -838.790894 0.000009 0.000003 -179.999985 838.791565
10 0.350077 0.966311 -838.790894 0.000009 0.000003 -179.999985 838.791565
11 0.350077 0.966311 -838.790894 0.000009 0.000003 -179.999985 838.791565
[Rear_Toe1_01]
9 0.653352 83.966492 -371.173737 0.978671 39.571743 91.473625 380.553192
10 0.653352 83.966492 -371.173737 1.181407 39.694630 91.782532 380.553192
11 0.653352 83.966492 -371.173737 1.314849 39.602676 91.992805 380.553192
[Rear_Toe2_01]
9 178.200760 -294.826019 -362.060547 2.799763 48.321972 -58.975864 499.765686
10 178.200760 -294.826019 -362.060547 3.039671 49.132648 -58.945053 499.765686
11 178.200760 -294.826019 -362.060547 2.707045 48.775341 -59.436588 499.765686
[Rear_Toe3_01]
9 -153.359680 -308.780914 -362.060852 -0.284359 47.149006 -119.315125 499.952881
10 -153.359680 -308.780914 -362.060852 -0.823256 47.848919 -120.157333 499.952881
11 -153.359680 -308.780914 -362.060852 -0.777511 47.443550 -120.250061 499.952881
[planeLockWeightCenter]
9 -0.000062 0.000238 0.000000 -0.011814 -0.004373 -0.000015 0.000246
10 -0.000062 0.000238 0.000000 -0.011814 -0.004373 -0.000015 0.000246
11 -0.000062 0.000238 0.000000 -0.011814 -0.004373 -0.000015 0.000246
[Rear_Toe1_02]
9 379.707825 0.194073 0.000477 -0.003293 -0.077468 0.011552 379.707855
10 379.707825 0.194073 0.000477 -0.003293 -0.077468 0.011552 379.707855
11 379.707825 0.194073 0.000477 -0.003293 -0.077468 0.011552 379.707855
[Rear_Toe1_03]
9 500.129700 0.165701 0.000119 -0.003291 -0.032962 0.021441 500.129761
10 500.129700 0.165701 0.000119 -0.003291 -0.032962 0.021441 500.129761
11 500.129700 0.165701 0.000119 -0.003291 -0.032962 0.021441 500.129761
[Rear_Toe2_02]
9 340.494507 0.000238 -0.000954 0.001180 -78.397072 0.001180 340.494507
10 340.494507 0.000238 -0.000954 0.001179 -78.825325 0.001179 340.494507
11 340.494507 0.000238 -0.000954 0.001179 -79.011040 0.001179 340.494507
[Rear_Toe2_03]
9 433.103577 0.000000 0.000238 0.024099 84.417038 0.024099 433.103546
10 433.103577 0.000000 0.000238 0.028149 85.220818 0.028149 433.103546
11 433.103577 0.000000 0.000238 0.030418 85.577515 0.030418 433.103546
[Rear_Toe3_02]
9 340.494141 -0.000358 -0.000477 0.001184 -75.147537 0.001184 340.494171
10 340.494141 -0.000358 -0.000477 0.001184 -74.979271 0.001184 340.494171
11 340.494141 -0.000358 -0.000477 0.001184 -74.810928 0.001184 340.494171
[Rear_Toe3_03]
9 433.103577 0.001431 -0.000238 0.011685 78.471527 0.011685 433.103546
10 433.103577 0.001431 -0.000238 0.011501 78.286507 0.011501 433.103546
11 433.103577 0.001431 -0.000238 0.011122 77.885315 0.011122 433.103546
[Back_Bone]
9 1312.175781 -701.934692 0.000954 0.000023 -0.000007 -85.606667 1488.125488
10 1312.175781 -701.934692 0.000954 0.000023 -0.000007 -85.606667 1488.125488
11 1312.175781 -701.934692 0.000954 0.000023 -0.000007 -85.606667 1488.125488
[Head]
9 1406.159424 809.709290 0.001431 -0.002353 -28.141396 -4.521389 1622.625488
10 1406.159424 809.709290 0.001431 -0.001525 -29.100946 -4.930143 1622.625488
11 1406.159424 809.709290 0.001431 -0.002569 -29.576298 -5.314119 1622.625488
[Motor_Bone]
9 1158.364380 -417.834747 0.000477 -1.493037 14.007198 -71.038330 1231.419434
10 1158.364380 -417.834747 0.000477 -2.441351 10.707504 -69.731293 1231.419434
11 1158.364380 -417.834747 0.000477 -3.543325 7.238117 -68.680237 1231.419434
[Ping_Mechanism]
9 1228.818848 -419.380859 6.038775 0.000103 -0.000053 82.120995 1298.427002
10 1228.882568 -419.391602 5.912083 0.000103 -0.000053 82.120995 1298.490112
11 1228.946289 -419.402374 5.785392 0.000103 -0.000053 82.120995 1298.553345
[BN_LookIK]
9 193.241119 1380.371704 -0.002861 0.000000 89.965736 -31.038179 1393.832153
10 193.241119 1380.371704 -0.002861 0.000000 89.965736 -31.038179 1393.832153
11 193.241119 1380.371704 -0.002861 0.000000 89.965736 -31.038179 1393.832153
[bottomMouth]
9 -435.092926 615.759399 -0.000954 -0.000022 0.000016 73.527184 753.966492
10 -435.092926 615.759399 -0.000954 -0.000022 0.000016 73.527184 753.966492
11 -435.092926 615.759399 -0.000954 -0.000022 0.000016 73.527184 753.966492
[L_Mouth01]
9 554.440979 7.658243 838.222046 150.204178 23.759130 109.605339 1005.027161
10 554.440979 7.658243 838.222046 150.204178 23.759130 109.605339 1005.027161
11 554.440979 7.658243 838.222046 150.204178 23.759130 109.605339 1005.027161
[L_mouthFront]
9 551.629089 934.514771 339.150421 0.000081 2.804060 79.119301 1136.941284
10 551.629089 934.514771 339.150421 0.000081 2.804060 79.119301 1136.941284
11 551.629089 934.514771 339.150421 0.000081 2.804060 79.119301 1136.941284
[mouthGun]
9 55.332661 1627.420898 0.000000 0.000023 0.000009 -11.038128 1628.361328
10 55.332661 1627.420898 0.000000 0.000023 0.000009 -11.038128 1628.361328
11 55.332661 1627.420898 0.000000 0.000023 0.000009 -11.038128 1628.361328
[R_Mouth01]
9 554.442383 7.659197 -838.223938 29.795891 -23.759109 109.605331 1005.029541
10 554.442383 7.659197 -838.223938 29.795891 -23.759109 109.605331 1005.029541
11 554.442383 7.659197 -838.223938 29.795891 -23.759109 109.605331 1005.029541
[R_mouthFront]
9 551.629089 934.514282 -339.151367 0.000029 -2.803930 79.119133 1136.941162
10 551.629089 934.514282 -339.151367 0.000029 -2.803930 79.119133 1136.941162
11 551.629089 934.514282 -339.151367 0.000029 -2.803930 79.119133 1136.941162
[TopMouth]
9 461.269867 -56.106091 -0.008583 -0.000059 -0.000268 92.025169 464.669525
10 461.269867 -56.106091 -0.008583 -0.000059 -0.000268 92.025169 464.669525
11 461.269867 -56.106091 -0.008583 -0.000059 -0.000268 92.025169 464.669525
[weapon_bone]
9 -987.239868 1448.372803 0.001431 0.000000 89.965736 -31.038221 1752.833740
10 -987.239868 1448.372803 0.001431 0.000000 89.965736 -31.038221 1752.833740
11 -987.239868 1448.372803 0.001431 0.000000 89.965736 -31.038221 1752.833740
